<!-- Generated by IcoMoon.io -->
<svg version="1.1" xmlns="http://www.w3.org/2000/svg" viewBox="0 0 32 32">
<title>camp-management</title>
<path d="M16 32c-8.837 0-16-7.163-16-16s7.163-16 16-16c8.837 0 16 7.163 16 16s-7.163 16-16 16zM12.506 7.501l-7.006 3.811 0.745 0.419 2.731 1.518-0.032 0.017h-0.003v0.001l-3.381 1.842 3.381 1.817v4.567l7.057 3.515 7.060-3.515v-4.553l3.408-1.831-3.392-1.844 3.426-1.903-0.756-0.407-6.252-3.408-3.447 1.879-3.539-1.925zM7.459 11.32l5.047-2.747 2.502 1.362-5.107 2.744-2.442-1.359zM16.99 9.988l2.502-1.365 5.047 2.747-2.443 1.359-5.106-2.741zM16.921 16.496l5.053-2.757 2.505 1.364-5.107 2.741-2.45-1.348zM7.543 15.105l2.5-1.365 5.099 2.757-2.493 1.348-5.106-2.74zM16.475 17.319l2.888 1.603 2.751-1.474v3.459l-5.639 2.806v-6.394zM15.527 17.329v6.387l-5.639-2.808v-3.472l2.768 1.487 2.871-1.593z"></path>
</svg>
