<?xml version="1.0" encoding="UTF-8" standalone="no"?>
<svg viewBox="0 0 32 32" version="1.1" xmlns="http://www.w3.org/2000/svg" xmlns:xlink="http://www.w3.org/1999/xlink">
    <!-- Generator: Sketch 46.1 (44463) - http://www.bohemiancoding.com/sketch -->
    <title>icons/camp-management</title>
    <desc>Created with Sketch.</desc>
    <defs></defs>
    <g id="Symbols" stroke="none" stroke-width="1" fill="none" fill-rule="evenodd">
        <g id="icons/camp-management">
            <g id="Group">
                <circle id="Oval-2-Copy-2" fill="#FAB400" cx="16" cy="16" r="16"></circle>
                <path d="M12.5056,7.50112 L5.5,11.31192 L6.2448,11.73052 L8.9762,13.24812 L8.944,13.26492 L8.9412,13.26492 L8.9412,13.26632 L5.5602,15.10872 L8.9412,16.92592 L8.9412,21.49272 L15.9986,25.00812 L23.0588,21.49272 L23.0588,16.93992 L26.4664,15.10872 L23.0742,13.26492 L26.5,11.36232 L25.744,10.95492 L19.4916,7.54732 L16.0448,9.42612 L12.5056,7.50112 Z M7.4586,11.32032 L12.5056,8.57352 L15.0074,9.93572 L9.9002,12.67972 L7.4586,11.32032 Z M16.9898,9.98752 L19.4916,8.62252 L24.5386,11.36932 L22.0956,12.72872 L16.9898,9.98752 Z M16.9212,16.49612 L21.9738,13.73952 L24.4784,15.10312 L19.3712,17.84432 L16.9212,16.49612 Z M7.5426,15.10452 L10.043,13.73952 L15.1418,16.49612 L12.6484,17.84432 L7.5426,15.10452 Z M16.4746,17.31932 L19.3628,18.92232 L22.1138,17.44812 L22.1138,20.90752 L16.4746,23.71312 L16.4746,17.31932 Z M15.5268,17.32912 L15.5268,23.71592 L9.8876,20.90752 L9.8876,17.43552 L12.6554,18.92232 L15.5268,17.32912 Z" id="Page-1" fill="#FFFFFF"></path>
            </g>
        </g>
    </g>
</svg>
