<!-- Generated by IcoMoon.io -->
<svg version="1.1" xmlns="http://www.w3.org/2000/svg" viewBox="0 0 32 32">
<title>core-relief-item</title>
<path d="M16 32c-8.837 0-16-7.163-16-16s7.163-16 16-16c8.837 0 16 7.163 16 16s-7.163 16-16 16zM23.609 8.361c-0.935-0.908-2.073-1.361-3.421-1.361h-1.262c-0.179 1.11-1.398 1.974-2.891 1.974s-2.712-0.864-2.892-1.974h-1.255c-1.342 0-2.496 0.452-3.452 1.361-0.957 0.91-1.436 2.020-1.436 3.33v3.307h3.26v-2.166h0.855v12.168h9.774v-12.168h0.854v2.083h3.257v-3.224c0-1.31-0.466-2.42-1.391-3.33z"></path>
</svg>
