<!-- Generated by IcoMoon.io -->
<svg version="1.1" xmlns="http://www.w3.org/2000/svg" viewBox="0 0 32 32">
<title>education</title>
<path d="M16 32c-8.837 0-16-7.163-16-16s7.163-16 16-16c8.837 0 16 7.163 16 16s-7.163 16-16 16zM25.032 21.617c-4.464-2.807-8.327-0.235-8.327 0.205v-9.355c0-1.663 2.212-2.56 4.941-2.56 1.312 0 2.501 0.311 3.385 0.819v10.891zM15.36 21.822c0-0.44-3.865-3.012-8.329-0.205v-10.891c0.884-0.508 2.073-0.819 3.385-0.819 2.732 0 4.944 0.897 4.944 2.56v9.355zM16.099 10.396c-0.692-0.661-4.664-2.959-10.099-0.617v12.843h8.233c0.283 0.244 0.955 0.415 1.741 0.415 0.785 0 1.459-0.171 1.743-0.415h8.283v-12.843c-5.212-2.297-9.376 0.133-9.901 0.617v0z"></path>
</svg>
