<!-- Generated by IcoMoon.io -->
<svg version="1.1" xmlns="http://www.w3.org/2000/svg" viewBox="0 0 32 32">
<title>health</title>
<path d="M16 32c-8.837 0-16-7.163-16-16s7.163-16 16-16c8.837 0 16 7.163 16 16s-7.163 16-16 16zM22.726 13.679l-4.525 4.524-4.403-4.404 4.525-4.524c0.587-0.588 1.369-0.913 2.2-0.913 0.832 0 1.615 0.325 2.203 0.913 1.213 1.213 1.213 3.189 0 4.404zM23.69 8.312c-0.875-0.874-2.021-1.312-3.167-1.312s-2.291 0.438-3.164 1.312l-9.048 9.046c-1.748 1.746-1.748 4.583 0.001 6.331 1.746 1.747 4.583 1.747 6.33 0l9.048-9.046c1.747-1.748 1.747-4.585 0-6.331z"></path>
</svg>
