<!-- Generated by IcoMoon.io -->
<svg version="1.1" xmlns="http://www.w3.org/2000/svg" viewBox="0 0 32 32">
<title>legal-advice</title>
<path d="M16 32c8.837 0 16-7.163 16-16s-7.163-16-16-16c-8.837 0-16 7.163-16 16s7.163 16 16 16zM25.954 17.943l-2.743-6.409-2.744 6.409h5.487zM26.5 17.943c0 1.053-1.473 1.908-3.289 1.908-1.817 0-3.29-0.855-3.29-1.908l3.29-7.683 3.289 7.683zM11.531 17.943l-2.744-6.409-2.743 6.409h5.487zM12.077 17.943c0 1.053-1.473 1.908-3.29 1.908-1.816 0-3.287-0.855-3.287-1.908l3.287-7.683 3.29 7.683zM16.96 10.26v14.333h2.885v1.253h-7.692v-1.253h2.884v-14.333h-6.251v-1.253h6.251v-3.007h1.922v3.007h6.251v1.253h-6.251z"></path>
</svg>
