<?xml version="1.0" encoding="UTF-8" standalone="no"?>
<svg viewBox="0 0 32 32" version="1.1" xmlns="http://www.w3.org/2000/svg" xmlns:xlink="http://www.w3.org/1999/xlink">
    <!-- Generator: Sketch 46.1 (44463) - http://www.bohemiancoding.com/sketch -->
    <title>icons/legal-advice</title>
    <desc>Created with Sketch.</desc>
    <defs></defs>
    <g id="Symbols" stroke="none" stroke-width="1" fill="none" fill-rule="evenodd">
        <g id="icons/legal-advice">
            <g id="Group-8">
                <circle id="Oval-2-Copy-2" fill="#FAB400" cx="16" cy="16" r="16"></circle>
                <path d="M25.954,17.9434 L23.2114,11.5342 L20.4674,17.9434 L25.954,17.9434 Z M26.5,17.9434 C26.5,18.9962 25.0272,19.8516 23.2114,19.8516 C21.3942,19.8516 19.9214,18.9962 19.9214,17.9434 L23.2114,10.2602 L26.5,17.9434 Z M11.5312,17.9434 L8.7872,11.5342 L6.0446,17.9434 L11.5312,17.9434 Z M12.0772,17.9434 C12.0772,18.9962 10.6044,19.8516 8.7872,19.8516 C6.9714,19.8516 5.5,18.9962 5.5,17.9434 L8.7872,10.2602 L12.0772,17.9434 Z M16.9604,10.2602 L16.9604,24.5934 L19.8458,24.5934 L19.8458,25.8464 L12.1542,25.8464 L12.1542,24.5934 L15.0382,24.5934 L15.0382,10.2602 L8.7872,10.2602 L8.7872,9.0072 L15.0382,9.0072 L15.0382,6 L16.9604,6 L16.9604,9.0072 L23.2114,9.0072 L23.2114,10.2602 L16.9604,10.2602 Z" id="Fill-1" fill="#FFFFFF"></path>
            </g>
        </g>
    </g>
</svg>
