<?xml version="1.0" encoding="UTF-8" standalone="no"?>
<svg viewBox="0 0 32 32" version="1.1" xmlns="http://www.w3.org/2000/svg" xmlns:xlink="http://www.w3.org/1999/xlink">
    <!-- Generator: Sketch 46.1 (44463) - http://www.bohemiancoding.com/sketch -->
    <title>icons/logistics</title>
    <desc>Created with Sketch.</desc>
    <defs></defs>
    <g id="Symbols" stroke="none" stroke-width="1" fill="none" fill-rule="evenodd">
        <g id="icons/logistics">
            <g id="Group-8">
                <circle id="Oval-2-Copy-2" fill="#FAB400" cx="16" cy="16" r="16"></circle>
                <path d="M6,18.725546 L19.3826,18.725546 L19.3826,10.500546 L6,10.500546 L6,18.725546 Z M23.9382,20.538546 C23.9382,20.056946 23.5448,19.663546 23.0632,19.663546 C22.5788,19.663546 22.1882,20.056946 22.1882,20.538546 C22.1882,21.021546 22.5788,21.413546 23.0632,21.413546 C23.5448,21.413546 23.9382,21.021546 23.9382,20.538546 L23.9382,20.538546 Z M24.6662,20.538546 C24.6662,21.423346 23.9452,22.142946 23.0632,22.142946 C22.1756,22.142946 21.4574,21.423346 21.4574,20.538546 C21.4574,19.655146 22.1756,18.935546 23.0632,18.935546 C23.9452,18.935546 24.6662,19.655146 24.6662,20.538546 L24.6662,20.538546 Z M12.7452,20.538546 C12.7452,20.056946 12.3518,19.663546 11.8716,19.663546 C11.3872,19.663546 10.9924,20.056946 10.9924,20.538546 C10.9924,21.021546 11.3872,21.413546 11.8716,21.413546 C12.3518,21.413546 12.7452,21.021546 12.7452,20.538546 L12.7452,20.538546 Z M13.4732,20.538546 C13.4732,21.423346 12.755,22.142946 11.8716,22.142946 C10.9854,22.142946 10.2672,21.423346 10.2672,20.538546 C10.2672,19.655146 10.9854,18.935546 11.8716,18.935546 C12.755,18.935546 13.4732,19.655146 13.4732,20.538546 L13.4732,20.538546 Z M24.081,16.017946 L23.2088,13.392946 L21.1662,13.392946 L21.1662,16.017946 L24.081,16.017946 Z M27,16.892946 L27,20.538546 L25.25,20.538546 C25.25,20.485346 25.243,20.433546 25.2388,20.381746 C25.2206,20.083546 25.138,19.799346 25.0078,19.545946 C24.6452,18.837546 23.9116,18.353146 23.0632,18.353146 C21.8536,18.353146 20.8736,19.331746 20.8736,20.538546 L14.057,20.538546 C14.057,20.042946 13.8918,19.594946 13.6146,19.228146 L20.1344,19.228146 L20.1344,11.642946 L23.7898,11.642946 L23.7898,12.517946 L24.956,16.017946 L27,16.892946 Z M6,19.228146 L10.123,19.228146 C9.8486,19.594946 9.6834,20.042946 9.6834,20.538546 L7.652,20.538546 L6,20.119946 L6,19.228146 Z" id="Page-1" fill="#FFFFFF"></path>
            </g>
        </g>
    </g>
</svg>
