<!-- Generated by IcoMoon.io -->
<svg version="1.1" xmlns="http://www.w3.org/2000/svg" viewBox="0 0 32 32">
<title>logistics</title>
<path d="M16 32c-8.837 0-16-7.163-16-16s7.163-16 16-16c8.837 0 16 7.163 16 16s-7.163 16-16 16zM6 18.726h13.383v-8.225h-13.383v8.225zM23.938 20.539v0c0 0.483-0.393 0.875-0.875 0.875-0.484 0-0.875-0.392-0.875-0.875 0-0.482 0.391-0.875 0.875-0.875 0.482 0 0.875 0.393 0.875 0.875zM24.666 20.539v0c0-0.883-0.721-1.603-1.603-1.603-0.888 0-1.606 0.72-1.606 1.603 0 0.885 0.718 1.604 1.606 1.604 0.882 0 1.603-0.72 1.603-1.604zM12.745 20.539v0c0 0.483-0.393 0.875-0.874 0.875-0.484 0-0.879-0.392-0.879-0.875 0-0.482 0.395-0.875 0.879-0.875 0.48 0 0.874 0.393 0.874 0.875zM13.473 20.539v0c0-0.883-0.718-1.603-1.602-1.603-0.886 0-1.604 0.72-1.604 1.603 0 0.885 0.718 1.604 1.604 1.604 0.883 0 1.602-0.72 1.602-1.604zM24.081 16.018h-2.915v-2.625h2.043l0.872 2.625zM27 16.893l-2.044-0.875-1.166-3.5v-0.875h-3.655v7.585h-6.52c0.277 0.367 0.442 0.815 0.442 1.31h6.817c0-1.207 0.98-2.185 2.19-2.185 0.848 0 1.582 0.484 1.945 1.193 0.13 0.253 0.213 0.538 0.231 0.836 0.004 0.052 0.011 0.104 0.011 0.157h1.75v-3.646zM6 19.228v0.892l1.652 0.419h2.031c0-0.496 0.165-0.944 0.44-1.31h-4.123z"></path>
</svg>
