<!-- Generated by IcoMoon.io -->
<svg version="1.1" xmlns="http://www.w3.org/2000/svg" viewBox="0 0 32 32">
<title>nutrition</title>
<path d="M16 32c-8.837 0-16-7.163-16-16s7.163-16 16-16c8.837 0 16 7.163 16 16s-7.163 16-16 16zM10.627 25.398c0 0.143 0.225 0.266 0.471 0.287 0.225 0.020 0.451-0.061 0.451-0.328l0.225-2.622c0-0.061-0.021-0.102-0.041-0.123-0.082-0.020-0.205 0-0.369 0.041-0.102 0.020-0.184 0.041-0.287 0.041v0c-0.102 0-0.184-0.020-0.266-0.041-0.102-0.020-0.164-0.020-0.225-0.041-0.123-0.020-0.205-0.020-0.205 0.123l0.266 2.683-0.021-0.020zM9.439 16.61l0.041 0.041c-0.983-0.43-1.413-1.004-1.618-1.475-0.102-0.225-0.164-0.43-0.164-0.594-0.021-0.143-0.021-0.225-0.021-0.225-0.143 0.246-0.061 1.434 0.287 2.561 0.348 1.147 1.004 2.212 2.008 2.212 0.471 0 0.881-0.389 0.901-0.901 0.021-0.492-0.348-1.127-1.434-1.618zM9.398 13.537l0.041 0.041c-0.983-0.43-1.413-1.004-1.618-1.475-0.102-0.225-0.164-0.43-0.164-0.594-0.021-0.143-0.021-0.225-0.021-0.225-0.143 0.246-0.061 1.434 0.287 2.561 0.348 1.147 1.004 2.212 2.008 2.212 0.471 0 0.881-0.389 0.901-0.901 0.021-0.492-0.348-1.127-1.434-1.618zM9.357 10.567l0.041 0.041c-0.983-0.43-1.413-1.004-1.618-1.475-0.102-0.225-0.164-0.43-0.164-0.594-0.021-0.143-0.021-0.225-0.021-0.225-0.143 0.246-0.061 1.434 0.287 2.561 0.348 1.147 1.004 2.212 2.008 2.212 0.471 0 0.881-0.389 0.901-0.901 0.021-0.492-0.348-1.127-1.434-1.618zM12.040 19.088l0.021-0.041c1.004 0 1.659-1.065 2.008-2.212 0.184-0.553 0.287-1.106 0.328-1.618s0.041-0.819-0.021-0.942v0.225c-0.021 0.328-0.205 0.799-0.696 1.332-0.246 0.266-0.615 0.512-1.106 0.737-1.086 0.492-1.454 1.127-1.434 1.618 0.021 0.512 0.43 0.901 0.901 0.901zM9.296 19.642l0.041 0.041c-0.983-0.43-1.413-1.004-1.618-1.475-0.102-0.225-0.164-0.43-0.164-0.594-0.021-0.143-0.021-0.225-0.021-0.225-0.143 0.246-0.061 1.434 0.287 2.561 0.348 1.147 1.004 2.212 2.008 2.212 0.471 0 0.881-0.389 0.901-0.901 0.021-0.492-0.348-1.127-1.434-1.618zM11.979 22.182l0.021-0.041c1.004 0 1.659-1.065 2.008-2.212 0.184-0.553 0.287-1.106 0.328-1.618s0.041-0.819-0.021-0.942v0.225c-0.021 0.328-0.205 0.799-0.696 1.331-0.246 0.266-0.615 0.512-1.106 0.737-1.086 0.492-1.454 1.127-1.434 1.618 0.021 0.512 0.43 0.901 0.901 0.901zM11.959 16.098l0.021-0.041c1.004 0 1.659-1.065 2.008-2.212 0.184-0.553 0.287-1.106 0.328-1.618s0.041-0.819-0.021-0.942v0.225c-0.021 0.328-0.205 0.799-0.696 1.332-0.246 0.266-0.615 0.512-1.106 0.737-1.086 0.492-1.454 1.127-1.434 1.618 0.021 0.512 0.43 0.901 0.901 0.901zM11.938 13.189l0.021-0.041c1.004 0 1.659-1.065 2.008-2.212 0.184-0.553 0.287-1.106 0.328-1.618s0.041-0.819-0.021-0.942v0.225c-0.021 0.328-0.205 0.799-0.696 1.332-0.246 0.266-0.615 0.512-1.106 0.737-1.086 0.492-1.454 1.127-1.434 1.618 0.021 0.512 0.43 0.901 0.901 0.901zM10.975 10.936v-0.021c1.086 0 1.065-1.147 0.758-2.294-0.143-0.574-0.328-1.106-0.553-1.577-0.43-0.963-0.328-0.799-0.717 0.184-0.41 0.983-0.655 2.171-0.451 3.052 0.102 0.43 0.41 0.655 0.963 0.655zM16.834 25.767v0.020l1.311-2.294c0.061-0.102 0-0.164-0.123-0.184s-0.328-0.061-0.512-0.143v0c-0.102-0.041-0.184-0.082-0.246-0.143-0.143-0.102-0.246-0.205-0.328-0.225-0.041 0-0.082 0.020-0.102 0.082l-0.881 2.54c-0.061 0.143 0.123 0.328 0.328 0.451s0.451 0.143 0.553-0.102zM18.596 16.999v0.020c-0.717-0.819-0.881-1.536-0.86-2.048 0-0.246 0.041-0.451 0.102-0.594s0.082-0.205 0.082-0.205c-0.102 0.082-0.246 0.369-0.43 0.84-0.348 0.983-0.553 2.233-0.328 3.319 0.102 0.553 0.389 0.922 0.86 1.147 0.41 0.184 0.942 0.020 1.188-0.41s0.184-1.168-0.615-2.069zM19.866 14.234v0.021c-0.717-0.819-0.881-1.516-0.86-2.028 0-0.246 0.041-0.451 0.102-0.594s0.082-0.205 0.082-0.205c-0.102 0.082-0.246 0.369-0.43 0.84-0.348 0.983-0.553 2.233-0.328 3.319 0.102 0.553 0.389 0.922 0.86 1.147 0.41 0.184 0.942 0.020 1.188-0.41s0.184-1.168-0.615-2.089zM21.095 11.571c-0.717-0.819-0.881-1.516-0.86-2.028 0-0.246 0.041-0.451 0.102-0.594s0.082-0.205 0.082-0.205c-0.102 0.082-0.246 0.369-0.43 0.84-0.348 0.983-0.553 2.233-0.328 3.319 0.102 0.553 0.389 0.922 0.86 1.147 0.41 0.184 0.942 0.021 1.188-0.41s0.184-1.168-0.615-2.069zM20.009 20.399h-0.020c0.922 0.43 1.946-0.266 2.765-1.147 0.799-0.881 1.352-1.946 1.352-2.212 0 0-0.041 0.061-0.102 0.205-0.143 0.266-0.512 0.635-1.168 0.901-0.348 0.143-0.778 0.205-1.311 0.205-1.209 0-1.803 0.41-1.967 0.881-0.184 0.471 0.041 0.983 0.451 1.168zM17.285 19.805c-0.717-0.819-0.881-1.516-0.86-2.028 0-0.246 0.041-0.451 0.102-0.594s0.082-0.205 0.082-0.205c-0.102 0.082-0.246 0.369-0.43 0.84-0.348 0.983-0.553 2.233-0.328 3.319 0.102 0.553 0.389 0.922 0.86 1.147 0.41 0.184 0.942 0.020 1.188-0.41s0.184-1.168-0.615-2.069zM18.719 23.226h-0.020c0.922 0.43 1.946-0.266 2.765-1.147 0.799-0.881 1.352-1.946 1.352-2.212 0 0-0.041 0.061-0.102 0.205-0.143 0.266-0.512 0.635-1.168 0.901-0.348 0.143-0.778 0.205-1.311 0.205-1.209 0-1.803 0.41-1.967 0.881-0.184 0.471 0.041 0.983 0.451 1.168zM21.32 17.675h-0.020c0.922 0.43 1.946-0.266 2.765-1.147 0.799-0.881 1.352-1.946 1.352-2.212 0 0-0.041 0.061-0.102 0.205-0.143 0.266-0.512 0.635-1.168 0.901-0.348 0.143-0.778 0.205-1.311 0.205-1.209 0-1.803 0.41-1.967 0.881-0.184 0.471 0.041 0.983 0.451 1.168zM22.57 14.992l-0.020 0.021c0.922 0.43 1.946-0.266 2.765-1.147 0.799-0.881 1.352-1.946 1.352-2.212 0 0-0.041 0.061-0.102 0.205-0.143 0.266-0.512 0.635-1.168 0.901-0.348 0.143-0.778 0.205-1.311 0.184-1.209 0-1.803 0.41-1.967 0.881-0.184 0.471 0.041 0.983 0.451 1.168zM22.652 12.554v-0.021c0.983 0.471 1.434-0.594 1.659-1.762 0.102-0.594 0.164-1.147 0.184-1.68 0-1.045 0.041-0.86-0.737-0.143-0.778 0.737-1.536 1.7-1.7 2.581-0.102 0.451 0.102 0.799 0.594 1.024z"></path>
</svg>
