<!-- Generated by IcoMoon.io -->
<svg version="1.1" xmlns="http://www.w3.org/2000/svg" viewBox="0 0 32 32">
<title>protection</title>
<path d="M16 32c-8.837 0-16-7.163-16-16s7.163-16 16-16c8.837 0 16 7.163 16 16s-7.163 16-16 16zM16.999 16.082c1.082 0 1.999-0.39 2.768-1.152 0.766-0.766 1.148-1.684 1.148-2.77 0-1.079-0.383-2.004-1.148-2.77-0.769-0.767-1.686-1.141-2.768-1.141-1.080 0-2.008 0.374-2.765 1.141-0.772 0.766-1.15 1.691-1.15 2.77 0 1.086 0.378 2.004 1.15 2.77 0.757 0.762 1.685 1.152 2.765 1.152zM23.024 14.503l-4.139 4.243v5.768h0.034v0.019h3.394v-2.49l3.46-4.572c0.138-0.17 0.228-0.38 0.228-0.611v-7.025c0-0.55-0.446-0.997-0.998-0.997-0.548 0-0.996 0.448-0.996 0.997v4.057c0.242 0.053 0.47 0.154 0.655 0.334 0.529 0.517 0.542 1.367 0.026 1.897l-1.889 1.94-0.258-0.251 1.891-1.936c0.378-0.391 0.37-1.016-0.018-1.397-0.12-0.114-0.266-0.196-0.419-0.239-0.162-0.047-0.332-0.049-0.496-0.016-0.182 0.046-0.347 0.14-0.475 0.276zM10.977 14.503c-0.128-0.136-0.293-0.23-0.476-0.276-0.163-0.034-0.332-0.031-0.497 0.016-0.154 0.043-0.296 0.125-0.419 0.239-0.386 0.38-0.395 1.006-0.017 1.397l1.89 1.936-0.257 0.251-1.888-1.94c-0.516-0.53-0.503-1.38 0.025-1.897 0.185-0.18 0.414-0.281 0.655-0.334v-4.057c0-0.55-0.448-0.997-0.996-0.997-0.552 0-0.998 0.448-0.998 0.997v7.025c0 0.23 0.090 0.44 0.228 0.611l3.461 4.572v2.49h3.391v-0.019h0.034v-5.768l-4.136-4.243z"></path>
</svg>
