<?xml version="1.0" encoding="UTF-8" standalone="no"?>
<svg viewBox="0 0 32 32" version="1.1" xmlns="http://www.w3.org/2000/svg" xmlns:xlink="http://www.w3.org/1999/xlink">
    <!-- Generator: Sketch 46.1 (44463) - http://www.bohemiancoding.com/sketch -->
    <title>icons/protection</title>
    <desc>Created with Sketch.</desc>
    <defs>
        <polygon id="path-1" points="0 8.14206 0 0.00036 18 0.00036 18 8.14206 18 16.28376 0 16.28376 0 8.14206"></polygon>
    </defs>
    <g id="Symbols" stroke="none" stroke-width="1" fill="none" fill-rule="evenodd">
        <g id="icons/protection">
            <g id="Group-8">
                <circle id="Oval-2-Copy-2" fill="#FAB400" cx="16" cy="16" r="16"></circle>
                <g id="Group-4" transform="translate(7.000000, 8.250000)">
                    <mask id="mask-2" fill="white">
                        <use xlink:href="#path-1"></use>
                    </mask>
                    <g id="Clip-2"></g>
                    <path d="M8.9988,7.83216 C10.0812,7.83216 10.998,7.44216 11.7672,6.68016 C12.5328,5.91456 12.9156,4.99656 12.9156,3.91056 C12.9156,2.83176 12.5328,1.90656 11.7672,1.14096 C10.998,0.37416 10.0812,-0.00024 8.9988,-0.00024 C7.9188,-0.00024 6.9912,0.37416 6.234,1.14096 C5.4624,1.90656 5.0844,2.83176 5.0844,3.91056 C5.0844,4.99656 5.4624,5.91456 6.234,6.68016 C6.9912,7.44216 7.9188,7.83216 8.9988,7.83216 M15.024,6.25296 L10.8852,10.49616 L10.8852,16.26456 L10.9188,16.26456 L10.9188,16.28376 L14.3124,16.28376 L14.3124,13.79376 L17.772,9.22176 C17.91,9.05136 18,8.84136 18,8.61096 L18,1.58616 C18,1.03656 17.5536,0.58896 17.0016,0.58896 C16.4532,0.58896 16.0056,1.03656 16.0056,1.58616 L16.0056,5.64336 C16.248,5.69616 16.476,5.79696 16.6608,5.97696 C17.19,6.49416 17.2032,7.34376 16.6872,7.87416 L14.7984,9.81456 L14.5404,9.56376 L16.4316,7.62816 C16.8096,7.23696 16.8012,6.61176 16.4136,6.23136 C16.2936,6.11736 16.1472,6.03576 15.9948,5.99256 C15.8328,5.94576 15.6624,5.94336 15.4992,5.97696 C15.3168,6.02256 15.1524,6.11736 15.024,6.25296 M2.9772,6.25296 L7.1136,10.49616 L7.1136,16.26456 L7.08,16.26456 L7.08,16.28376 L3.6888,16.28376 L3.6888,13.79376 L0.228,9.22176 C0.09,9.05136 0,8.84136 0,8.61096 L0,1.58616 C0,1.03656 0.4464,0.58896 0.9984,0.58896 C1.5468,0.58896 1.9944,1.03656 1.9944,1.58616 L1.9944,5.64336 C1.7532,5.69616 1.524,5.79696 1.3392,5.97696 C0.8112,6.49416 0.798,7.34376 1.314,7.87416 L3.2016,9.81456 L3.4584,9.56376 L1.5684,7.62816 C1.1904,7.23696 1.1988,6.61176 1.5852,6.23136 C1.7076,6.11736 1.8504,6.03576 2.004,5.99256 C2.1684,5.94576 2.3376,5.94336 2.5008,5.97696 C2.6844,6.02256 2.8488,6.11736 2.9772,6.25296" id="Fill-1" fill="#FFFFFF" mask="url(#mask-2)"></path>
                </g>
            </g>
        </g>
    </g>
</svg>
