<!-- Generated by IcoMoon.io -->
<svg version="1.1" xmlns="http://www.w3.org/2000/svg" viewBox="0 0 32 32">
<title>sanitation-water-hygiene</title>
<path d="M16 32c-8.837 0-16-7.163-16-16s7.163-16 16-16c8.837 0 16 7.163 16 16s-7.163 16-16 16zM23.811 16.663v-2.208c0-1.399-1.27-2.608-2.954-2.608h-3.934l-0.021-1.228c0-0.353-0.288-0.641-0.642-0.641h-1.538v-0.788c0.133-0.078 0.243-0.178 0.336-0.298h3.276c0.22 0.281 0.542 0.477 0.926 0.477 0.652 0 1.183-0.53 1.183-1.184s-0.531-1.184-1.183-1.184c-0.391 0-0.724 0.206-0.938 0.502h-3.247c-0.218-0.295-0.547-0.502-0.941-0.502-0.39 0-0.724 0.206-0.938 0.502h-3.585c-0.215-0.295-0.546-0.502-0.936-0.502-0.655 0-1.184 0.53-1.184 1.184s0.529 1.184 1.184 1.184c0.38 0 0.705-0.196 0.92-0.477h3.616c0.094 0.123 0.207 0.223 0.343 0.299v0.787h-1.632c-0.353 0-0.641 0.288-0.641 0.641v1.228h-4.779v3.825h5.317c0.521 1.045 1.215 1.563 2.259 1.563 1.043 0 1.912-0.518 2.433-1.563h1.913c0.571 0 0.782 0.367 0.843 1.071-0.168 0.114-0.283 0.299-0.283 0.518 0 0.355 0.288 0.642 0.641 0.642h3.969c0.354 0 0.642-0.287 0.642-0.642 0-0.277-0.176-0.508-0.422-0.597zM21.552 18.605c-0.348 0.521-1.912 4.346-1.912 4.869 0 2.863 3.825 2.863 3.825 0 0-0.523-1.565-4.174-1.913-4.869z"></path>
</svg>
