<?xml version="1.0" encoding="UTF-8" standalone="no"?>
<svg viewBox="0 0 32 32" version="1.1" xmlns="http://www.w3.org/2000/svg" xmlns:xlink="http://www.w3.org/1999/xlink">
    <!-- Generator: Sketch 46.1 (44463) - http://www.bohemiancoding.com/sketch -->
    <title>icons/education</title>
    <desc>Created with Sketch.</desc>
    <defs></defs>
    <g id="Symbols" stroke="none" stroke-width="1" fill="none" fill-rule="evenodd">
        <g id="icons/education">
            <g id="Group-8">
                <circle id="Oval-2-Copy-2" fill="#FAB400" cx="16" cy="16" r="16"></circle>
                <path d="M25.032,21.6170218 C20.568,18.8103551 16.7053333,21.3823551 16.7053333,21.8223551 L16.7053333,12.4676885 C16.7053333,10.8050218 18.9173333,9.90768847 21.6466667,9.90768847 C22.9586667,9.90768847 24.148,10.2183551 25.032,10.7263551 L25.032,21.6170218 Z M15.36,21.8223551 C15.36,21.3823551 11.4946667,18.8103551 7.03066667,21.6170218 L7.03066667,10.7263551 C7.91466667,10.2183551 9.104,9.90768847 10.416,9.90768847 C13.148,9.90768847 15.36,10.8050218 15.36,12.4676885 L15.36,21.8223551 Z M16.0986667,10.3956885 C15.4066667,9.73435514 11.4346667,7.4370218 6,9.77835514 L6,11.4516885 L6,22.6210218 L14.2333333,22.6210218 C14.516,22.8650218 15.188,23.0356885 15.9746667,23.0356885 C16.76,23.0356885 17.4333333,22.8650218 17.7173333,22.6210218 L26,22.6210218 L26,11.4516885 L26,9.77835514 C20.788,7.4810218 16.624,9.91168847 16.0986667,10.3956885 L16.0986667,10.3956885 Z" id="Fill-1" fill="#FFFFFF"></path>
            </g>
        </g>
    </g>
</svg>
