<?xml version="1.0" encoding="UTF-8" standalone="no"?>
<svg viewBox="0 0 32 32" version="1.1" xmlns="http://www.w3.org/2000/svg" xmlns:xlink="http://www.w3.org/1999/xlink">
    <!-- Generator: Sketch 46.1 (44463) - http://www.bohemiancoding.com/sketch -->
    <title>icons/sanitation-water-hygiene</title>
    <desc>Created with Sketch.</desc>
    <defs>
        <polygon id="path-1" points="17.7331034 0.000248275862 17.7331034 18.6203172 0.000372413793 18.6203172 0.000372413793 0.000248275862 17.7331034 0.000248275862"></polygon>
    </defs>
    <g id="Symbols" stroke="none" stroke-width="1" fill="none" fill-rule="evenodd">
        <g id="icons/sanitation-water-hygiene">
            <g id="Group-8">
                <circle id="Oval-2-Copy-2" fill="#FAB400" cx="16" cy="16" r="16"></circle>
                <g id="Group" transform="translate(6.500000, 7.000000)">
                    <mask id="mask-2" fill="white">
                        <use xlink:href="#path-1"></use>
                    </mask>
                    <g id="Clip-2"></g>
                    <path d="M17.3114069,9.66314483 L17.3114069,7.45473103 C17.3114069,6.05569655 16.0414759,4.8465931 14.3569241,4.8465931 L10.4229931,4.8465931 L10.4018897,3.61886897 C10.4018897,3.26631724 10.1138897,2.97831724 9.76009655,2.97831724 L8.22202759,2.97831724 L8.22202759,2.19004138 C8.35485517,2.11183448 8.46533793,2.01252414 8.55844138,1.89211034 L11.8344414,1.89211034 C12.0541655,2.17266207 12.3769241,2.3688 12.7605103,2.3688 C13.4122345,2.3688 13.9435448,1.83873103 13.9435448,1.18452414 C13.9435448,0.530317241 13.4122345,0.000248275862 12.7605103,0.000248275862 C12.3694759,0.000248275862 12.0367862,0.206317241 11.8220276,0.501765517 L8.57457931,0.501765517 C8.35609655,0.206317241 8.02713103,0.000248275862 7.63361379,0.000248275862 C7.24382069,0.000248275862 6.90988966,0.206317241 6.69513103,0.501765517 L3.11002759,0.501765517 C2.89526897,0.206317241 2.56382069,0.000248275862 2.17402759,0.000248275862 C1.51857931,0.000248275862 0.989751724,0.530317241 0.989751724,1.18452414 C0.989751724,1.83873103 1.51857931,2.3688 2.17402759,2.3688 C2.55388966,2.3688 2.87913103,2.17266207 3.09388966,1.89211034 L6.71002759,1.89211034 C6.80437241,2.0150069 6.91733793,2.11555862 7.05264828,2.19128276 L7.05264828,2.97831724 L5.42023448,2.97831724 C5.06768276,2.97831724 4.77968276,3.26631724 4.77968276,3.61886897 L4.77968276,4.8465931 L0.000372413793,4.8465931 L0.000372413793,8.67128276 L5.3172,8.67128276 C5.83857931,9.71652414 6.53251034,10.2341793 7.57651034,10.2341793 C8.61926897,10.2341793 9.48823448,9.71652414 10.0096138,8.67128276 L11.9225793,8.67128276 C12.4936138,8.67128276 12.7046483,9.03873103 12.7654759,9.7425931 C12.5978897,9.8568 12.4824414,10.0417655 12.4824414,10.2602483 C12.4824414,10.6152828 12.7704414,10.9020414 13.1229931,10.9020414 L17.0916828,10.9020414 C17.4454759,10.9020414 17.7334759,10.6152828 17.7334759,10.2602483 C17.7334759,9.98342069 17.5572,9.75252414 17.3114069,9.66314483 M15.0520966,11.6046621 C15.3996828,12.2998345 16.9650621,15.950731 16.9650621,16.4733517 C16.9650621,19.3359724 13.1403724,19.3359724 13.1403724,16.4733517 C13.1403724,15.950731 14.7045103,12.1260414 15.0520966,11.6046621" id="Fill-1" fill="#FFFFFF" mask="url(#mask-2)"></path>
                </g>
            </g>
        </g>
    </g>
</svg>
