<?xml version="1.0" encoding="UTF-8"?>
<svg width="34px" height="39px" viewBox="0 0 34 39" version="1.1" xmlns="http://www.w3.org/2000/svg" xmlns:xlink="http://www.w3.org/1999/xlink">
    <!-- Generator: Sketch 42 (36781) - http://www.bohemiancoding.com/sketch -->
    <title>beetwo icon</title>
    <desc>Created with Sketch.</desc>
    <defs>
        <polygon id="path-1" points="33.9999757 38.9157731 0 38.9157731 0 0.00018434874 33.9999757 0.00018434874"></polygon>
    </defs>
    <g id="Landingpage" stroke="none" stroke-width="1" fill="none" fill-rule="evenodd">
        <g id="Toucan-Issue-Overview" transform="translate(-703.000000, -1285.000000)">
            <g id="footer" transform="translate(50.000000, 30.000000)">
                <g transform="translate(0.000000, 1230.000000)" id="credits">
                    <g transform="translate(457.000000, 25.000000)">
                        <g id="beetwo-icon" transform="translate(196.000000, 0.000000)">
                            <mask id="mask-2" fill="white">
                                <use xlink:href="#path-1"></use>
                            </mask>
                            <g id="Clip-2"></g>
                            <path d="M33.9999757,27.8623456 L33.9999757,11.0536733 C33.9999757,10.107104 33.5011471,9.23255357 32.6912186,8.75939181 L18.3087329,0.355055672 C17.4988043,-0.118106092 16.5011471,-0.118106092 15.6914614,0.355055672 L1.30873286,8.75939181 C0.498804286,9.23255357 -2.42857143e-05,10.107104 -2.42857143e-05,11.0536733 L-2.42857143e-05,27.8623456 C-2.42857143e-05,28.8086691 0.498804286,29.6832195 1.30873286,30.1563813 L15.6914614,38.5609632 C16.5011471,39.034125 17.4988043,39.034125 18.3087329,38.5609632 L32.6912186,30.1563813 C33.5011471,29.6832195 33.9999757,28.8086691 33.9999757,27.8623456 L33.9999757,27.8623456 Z M7.69150429,20.7034695 C7.69150429,21.3395956 7.49163286,21.8105452 7.09213286,22.1163183 C6.69239,22.4220914 6.12629,22.5747321 5.39407571,22.5747321 C5.16821857,22.5747321 4.86901857,22.5717826 4.49696143,22.5656376 C4.12466143,22.5592468 3.67319,22.5501523 3.14230429,22.5378624 L3.07819,22.4729716 L3.07819,16.2380515 L3.14230429,16.1731607 C3.63651857,16.1608708 4.05909,16.1515305 4.41001857,16.1453855 C4.76094714,16.1392405 5.04314714,16.1360452 5.25661857,16.1360452 C5.92180429,16.1360452 6.44516143,16.2766418 6.82644714,16.5575893 C7.20797571,16.8387826 7.39861857,17.2603267 7.39861857,17.8222216 C7.39861857,18.0940746 7.32260429,18.3472468 7.17057571,18.5819842 C7.01830429,18.8167216 6.82377571,18.9865683 6.58650429,19.0915242 C6.73877571,19.1409296 6.88327571,19.2195851 7.02049,19.3277363 C7.15746143,19.4358876 7.27451857,19.5624737 7.37190429,19.7074947 C7.46929,19.8527616 7.54700429,20.0100725 7.60480429,20.1799191 C7.66260429,20.3500116 7.69150429,20.5242826 7.69150429,20.7034695 L7.69150429,20.7034695 Z M12.0578329,19.7215053 C12.0578329,20.0983141 12.0182471,20.4161313 11.9390757,20.6756943 L9.55883286,20.6756943 C9.57097571,20.9507426 9.64091857,21.1645872 9.76841857,21.3172279 C9.89616143,21.4701145 10.10599,21.5465578 10.3976614,21.5465578 C10.5436186,21.5465578 10.7124043,21.5256649 10.9037757,21.4838792 C11.0951471,21.4420935 11.3156614,21.37327 11.5648329,21.2779002 C11.7654329,21.487812 11.8902614,21.7719548 11.9388329,22.130083 C11.4504471,22.482312 10.8525329,22.6583036 10.1446043,22.6583036 C9.76016143,22.6583036 9.43813286,22.5963624 9.17900429,22.4729716 C8.91963286,22.3495809 8.70907571,22.1765389 8.54733286,21.9540914 C8.38559,21.7318897 8.27120429,21.4693771 8.20417571,21.1665536 C8.13690429,20.8642216 8.10339,20.5336229 8.10339,20.1752489 C8.10339,19.8296565 8.14467571,19.5098729 8.22700429,19.2163897 C8.30933286,18.9231523 8.43440429,18.6685053 8.60221857,18.4522027 C8.77003286,18.236146 8.98350429,18.0662994 9.24311857,17.9426628 C9.50224714,17.8192721 9.80606143,17.7573309 10.1538329,17.7573309 C10.4467186,17.7573309 10.7107043,17.8067363 10.9455471,17.9055473 C11.18039,18.0043582 11.3805043,18.1402847 11.5451614,18.3133267 C11.7098186,18.4861229 11.83659,18.6930851 11.92499,18.9339674 C12.01339,19.1748498 12.0578329,19.4373624 12.0578329,19.7215053 L12.0578329,19.7215053 Z M15.9085757,18.3133267 C16.0734757,18.4861229 16.2000043,18.6930851 16.2884043,18.9339674 C16.3768043,19.1748498 16.4212471,19.4373624 16.4212471,19.7215053 C16.4212471,20.0983141 16.3816614,20.4161313 16.3027329,20.6756943 L13.9222471,20.6756943 C13.93439,20.9507426 14.0043329,21.1645872 14.1320757,21.3172279 C14.2595757,21.4701145 14.4694043,21.5465578 14.7610757,21.5465578 C14.9070329,21.5465578 15.0758186,21.5256649 15.26719,21.4838792 C15.4585614,21.4420935 15.6790757,21.37327 15.92849,21.2779002 C16.1288471,21.487812 16.2536757,21.7719548 16.3022471,22.130083 C15.8138614,22.482312 15.2159471,22.6583036 14.5080186,22.6583036 C14.1235757,22.6583036 13.80179,22.5963624 13.5424186,22.4729716 C13.2830471,22.3495809 13.07249,22.1765389 12.9107471,21.9540914 C12.7490043,21.7318897 12.6346186,21.4693771 12.56759,21.1665536 C12.5003186,20.8642216 12.4668043,20.5336229 12.4668043,20.1752489 C12.4668043,19.8296565 12.50809,19.5098729 12.5904186,19.2163897 C12.6727471,18.9231523 12.7978186,18.6685053 12.9656329,18.4522027 C13.1334471,18.236146 13.3469186,18.0662994 13.6065329,17.9426628 C13.8659043,17.8192721 14.1694757,17.7573309 14.5172471,17.7573309 C14.8101329,17.7573309 15.0741186,17.8067363 15.3089614,17.9055473 C15.5438043,18.0043582 15.7439186,18.1402847 15.9085757,18.3133267 L15.9085757,18.3133267 Z M20.6557043,16.779791 C20.6557043,17.0098582 20.5945043,17.1765095 20.47259,17.2790074 C20.3504329,17.3817511 20.1551757,17.4331229 19.8868186,17.4331229 L19.6211329,17.4331229 L19.04459,17.4237826 L19.0353614,17.4237826 L19.04459,18.1080851 L19.04459,22.5191817 C18.8384043,22.5562973 18.5928757,22.5747321 18.3077614,22.5747321 C18.0226471,22.5747321 17.78319,22.5562973 17.5891471,22.5191817 L17.5891471,17.4237826 L17.0033757,17.4331229 L16.0606043,17.4331229 C16.0239329,17.2527069 16.0057186,17.0457447 16.0057186,16.8124821 C16.0057186,16.5789737 16.0239329,16.3722574 16.0606043,16.1915956 L20.5823614,16.1915956 C20.6311757,16.3535767 20.6557043,16.5497237 20.6557043,16.779791 L20.6557043,16.779791 Z M26.8058186,18.0537637 L25.7348186,22.5191817 C25.5089614,22.5562973 25.2039329,22.5747321 24.81949,22.5747321 C24.4350471,22.5747321 24.1756757,22.5314716 24.0413757,22.4451964 C23.9070757,22.3586754 23.8218329,22.1826838 23.7851614,21.9169758 L23.6387186,20.9256712 C23.5471614,20.3514863 23.4677471,19.7677153 23.4007186,19.1748498 L23.3458329,19.1748498 C23.3397614,19.2242553 23.2603471,19.8016355 23.1078329,20.9072363 L22.8516186,22.5191817 C22.55849,22.5562973 22.2350043,22.5747321 21.8811614,22.5747321 C21.5273186,22.5747321 21.2815471,22.5285221 21.1443329,22.4358561 C21.0071186,22.3431901 20.9109471,22.1642489 20.8560614,21.898541 L19.9681757,17.9797784 C20.2671329,17.8684317 20.5265043,17.8128813 20.74629,17.8128813 C20.9719043,17.8128813 21.1336471,17.8625326 21.2312757,17.9610977 C21.3289043,18.0599086 21.39909,18.2174653 21.4418329,18.4337679 L21.72549,19.9252721 C21.85979,20.5985137 21.9392043,21.0802784 21.96349,21.3705662 C21.9695614,21.4261166 21.99409,21.4538918 22.0368329,21.4538918 L22.5402757,17.9426628 C22.7537471,17.8994023 23.03449,17.8777721 23.3825043,17.8777721 C23.7302757,17.8777721 24.0078614,17.8994023 24.2155043,17.9426628 L24.7279329,21.3705662 C24.7340043,21.4261166 24.7585329,21.4538918 24.8012757,21.4538918 C24.9110471,20.7189548 24.9933757,20.2094149 25.0482614,19.9252721 L25.46039,17.9055473 C25.6068329,17.8625326 25.8050043,17.8406565 26.0551471,17.8406565 C26.36649,17.8406565 26.6013329,17.8809674 26.7601614,17.9610977 L26.8058186,18.0537637 Z M31.12819,20.2123645 C31.12819,20.5830284 31.0808329,20.9197721 30.9863614,21.2223498 C30.8916471,21.5249275 30.75419,21.78277 30.5744757,21.9958771 C30.3942757,22.2089842 30.1730329,22.3726859 29.9107471,22.4867363 C29.6482186,22.6010326 29.3461043,22.6583036 29.0044043,22.6583036 C28.6627043,22.6583036 28.36229,22.5995578 28.1029186,22.482312 C27.8435471,22.3650662 27.6237614,22.1996439 27.4438043,21.9865368 C27.2638471,21.7734296 27.12809,21.5155872 27.0365329,21.2130095 C26.9449757,20.9104317 26.8990757,20.5768834 26.8990757,20.2123645 C26.8990757,19.8419464 26.9449757,19.5069233 27.0365329,19.2072952 C27.12809,18.907667 27.2621471,18.6498246 27.43919,18.4337679 C27.6162329,18.2174653 27.8357757,18.0508141 28.0983043,17.9333225 C28.36059,17.8160767 28.6627043,17.7573309 29.0044043,17.7573309 C29.6086329,17.7573309 30.0967757,17.9397132 30.4690757,18.3039863 C30.9084043,18.7486355 31.12819,19.3847616 31.12819,20.2123645 L31.12819,20.2123645 Z M29.5253329,21.2176796 C29.6113043,20.9799926 29.6545329,20.6417742 29.6545329,20.20327 C29.6545329,19.758375 29.6113043,19.4204023 29.5253329,19.1886145 C29.4391186,18.9570725 29.2671757,18.8413015 29.0090186,18.8413015 C28.8737471,18.8413015 28.7647043,18.8737468 28.68189,18.9386376 C28.5988329,19.0035284 28.5327757,19.0915242 28.4837186,19.202625 C28.4344186,19.3137258 28.4006614,19.4420326 28.3822043,19.5870536 C28.3637471,19.7323204 28.3545186,19.8881565 28.3545186,20.0548078 C28.3545186,20.3143708 28.36229,20.5382931 28.37759,20.7265746 C28.39289,20.9151019 28.4237329,21.0726586 28.4696329,21.1989989 C28.5157757,21.3258309 28.5803757,21.4199716 28.6634329,21.481667 C28.7462471,21.5433624 28.85529,21.574333 28.9905614,21.574333 C29.2608614,21.574333 29.4391186,21.4553666 29.5253329,21.2176796 L29.5253329,21.2176796 Z M13.9132614,19.6750494 L15.1122471,19.6750494 L15.1122471,19.5732889 C15.1122471,19.3446964 15.0622186,19.1564149 14.9624043,19.0079527 C14.8623471,18.8597363 14.7125043,18.7857511 14.5126329,18.7857511 C14.3188329,18.7857511 14.1750614,18.8550662 14.0813186,18.994188 C13.9873329,19.1330641 13.9312329,19.3601817 13.9132614,19.6750494 L13.9132614,19.6750494 Z M9.54960429,19.6750494 L10.7488329,19.6750494 L10.7488329,19.5732889 C10.7488329,19.3446964 10.6988043,19.1564149 10.59899,19.0079527 C10.4989329,18.8597363 10.34909,18.7857511 10.1492186,18.7857511 C9.95541857,18.7857511 9.81164714,18.8550662 9.71766143,18.994188 C9.62391857,19.1330641 9.56781857,19.3601817 9.54960429,19.6750494 L9.54960429,19.6750494 Z M6.04469,21.2223498 C6.16004714,21.0802784 6.21784714,20.8826565 6.21784714,20.6292384 C6.21784714,20.3883561 6.14353286,20.1784443 5.99466143,19.9992574 C5.84603286,19.8203162 5.61094714,19.7305998 5.28916143,19.7305998 L4.53363286,19.7305998 L4.53363286,21.5372174 C4.69124714,21.5310725 4.86877571,21.5310725 5.06621857,21.5372174 C5.26341857,21.5433624 5.44701857,21.5278771 5.61701857,21.4910074 C5.78701857,21.4538918 5.92957571,21.3644212 6.04469,21.2223498 L6.04469,21.2223498 Z M5.79333286,18.4568729 C5.91160429,18.3118519 5.97061857,18.1341397 5.97061857,17.9242279 C5.97061857,17.7143162 5.91014714,17.5395536 5.78871857,17.4006775 C5.66753286,17.2618015 5.46426143,17.1922405 5.17939,17.1922405 L4.81097571,17.1922405 C4.70484714,17.1922405 4.61231857,17.1890452 4.53363286,17.1829002 L4.53363286,18.6744044 L5.17939,18.6744044 C5.47033286,18.6744044 5.67506143,18.6021397 5.79333286,18.4568729 L5.79333286,18.4568729 Z" id="Fill-1" fill="#FFFFFF" mask="url(#mask-2)"></path>
                        </g>
                    </g>
                </g>
            </g>
        </g>
    </g>
</svg>